<svg xmlns="http://www.w3.org/2000/svg" width="248.518" height="28.36" viewBox="0 0 248.518 28.36">
  <path id="Union_2" data-name="Union 2" d="M131.1,26.144a13.585,13.585,0,0,1-4.009-3.173,14.408,14.408,0,0,1-2.7-14.364A13.465,13.465,0,0,1,126.9,4.275a12.635,12.635,0,0,1,4.046-3.1A12.145,12.145,0,0,1,136.382,0a11.344,11.344,0,0,1,6.194,1.634,10.16,10.16,0,0,1,3.839,4.255l-2.7,1.749a7.807,7.807,0,0,0-1.463-2.166,7.522,7.522,0,0,0-1.861-1.406,8.018,8.018,0,0,0-2.072-.761,9.947,9.947,0,0,0-2.09-.228,8.25,8.25,0,0,0-3.971.931,9.188,9.188,0,0,0-2.907,2.433,10.5,10.5,0,0,0-1.767,3.381A12.576,12.576,0,0,0,127,13.6a11.683,11.683,0,0,0,.7,4.046,11.155,11.155,0,0,0,1.958,3.4,9.519,9.519,0,0,0,2.964,2.356,8.069,8.069,0,0,0,3.724.874,9.409,9.409,0,0,0,2.185-.266,7.986,7.986,0,0,0,2.146-.855,9.16,9.16,0,0,0,1.919-1.481,7.228,7.228,0,0,0,1.463-2.147l2.85,1.558a8.394,8.394,0,0,1-1.805,2.679,11.4,11.4,0,0,1-2.622,1.957,13.342,13.342,0,0,1-3.1,1.217,12.884,12.884,0,0,1-3.192.418A10.79,10.79,0,0,1,131.1,26.144Zm-123.538,0a13.6,13.6,0,0,1-4.01-3.173A14.524,14.524,0,0,1,.931,18.525,14.225,14.225,0,0,1,.855,8.607,13.479,13.479,0,0,1,3.362,4.275a12.649,12.649,0,0,1,4.047-3.1A12.142,12.142,0,0,1,12.844,0a11.344,11.344,0,0,1,6.194,1.634A10.158,10.158,0,0,1,22.875,5.89l-2.7,1.749a7.847,7.847,0,0,0-1.463-2.166,7.51,7.51,0,0,0-1.862-1.406,8.024,8.024,0,0,0-2.071-.761,9.947,9.947,0,0,0-2.09-.228,8.248,8.248,0,0,0-3.971.931A9.178,9.178,0,0,0,5.814,6.441,10.506,10.506,0,0,0,4.046,9.823,12.6,12.6,0,0,0,3.458,13.6a11.662,11.662,0,0,0,.7,4.046,11.152,11.152,0,0,0,1.957,3.4,9.523,9.523,0,0,0,2.965,2.356,8.065,8.065,0,0,0,3.723.874,9.4,9.4,0,0,0,2.185-.266,7.98,7.98,0,0,0,2.147-.855,9.183,9.183,0,0,0,1.919-1.481,7.262,7.262,0,0,0,1.463-2.147l2.849,1.558a8.392,8.392,0,0,1-1.8,2.679,11.409,11.409,0,0,1-2.623,1.957,13.311,13.311,0,0,1-3.1,1.217,12.872,12.872,0,0,1-3.191.418A10.79,10.79,0,0,1,7.562,26.144Zm235.956.988v-4h4v4Zm-13.238,0V3.192h-9.31V.152h22.04v3.04H233.7v23.94Zm-30.4,0V.152h11.248a7.318,7.318,0,0,1,3.287.741A8.276,8.276,0,0,1,217,2.869a9.426,9.426,0,0,1,1.69,2.774,8.454,8.454,0,0,1,.608,3.135,9.331,9.331,0,0,1-.57,3.23,8.924,8.924,0,0,1-1.615,2.774,7.855,7.855,0,0,1-2.507,1.939,7.242,7.242,0,0,1-3.249.722H203.3v9.69ZM203.3,14.4h7.866a4.165,4.165,0,0,0,1.92-.436,4.353,4.353,0,0,0,1.463-1.216,5.98,5.98,0,0,0,.95-1.805,6.812,6.812,0,0,0,.342-2.166,6.022,6.022,0,0,0-.4-2.2,5.949,5.949,0,0,0-1.064-1.786,4.694,4.694,0,0,0-1.558-1.178,4.391,4.391,0,0,0-1.881-.418H203.3ZM182.476,27.132V17.214L172.254.152h3.762l8.17,14.06L192.432.152h3.724L185.9,17.29v9.842Zm-14.554,0-6.156-9.69h-7.144v9.69H151.2V.152h11.552a7.324,7.324,0,0,1,3.288.741,8.283,8.283,0,0,1,2.584,1.976,9.448,9.448,0,0,1,1.691,2.774,8.471,8.471,0,0,1,.607,3.135,9.294,9.294,0,0,1-.4,2.717,8.417,8.417,0,0,1-1.14,2.375,7.639,7.639,0,0,1-1.786,1.824,6.959,6.959,0,0,1-2.337,1.1L171.8,27.132ZM154.622,14.4h8.17a4.022,4.022,0,0,0,1.919-.455,4.566,4.566,0,0,0,1.463-1.236,5.955,5.955,0,0,0,.95-1.8,6.693,6.693,0,0,0,.342-2.128,5.784,5.784,0,0,0-.4-2.147A6.306,6.306,0,0,0,166,4.845a4.808,4.808,0,0,0-1.558-1.216,4.232,4.232,0,0,0-1.881-.437h-7.942ZM117.04,27.132l-6.156-9.69h-7.144v9.69h-3.42V.152h11.552a7.321,7.321,0,0,1,3.287.741,8.262,8.262,0,0,1,2.584,1.976,9.429,9.429,0,0,1,1.691,2.774,8.472,8.472,0,0,1,.608,3.135,9.264,9.264,0,0,1-.4,2.717A8.415,8.415,0,0,1,118.5,13.87a7.643,7.643,0,0,1-1.787,1.824,6.959,6.959,0,0,1-2.337,1.1l6.537,10.337ZM103.739,14.4h8.17a4.02,4.02,0,0,0,1.919-.455,4.569,4.569,0,0,0,1.463-1.236,5.974,5.974,0,0,0,.95-1.8,6.668,6.668,0,0,0,.342-2.128,5.766,5.766,0,0,0-.4-2.147,6.324,6.324,0,0,0-1.064-1.786,4.828,4.828,0,0,0-1.558-1.216,4.238,4.238,0,0,0-1.881-.437h-7.942ZM77.33,27.132V.152H95.3v3.04H80.75v8.74H93.4v2.849H80.75v9.311h14.9v3.04Zm-25.5,0V.152H65.245A5.326,5.326,0,0,1,67.792.76a6.366,6.366,0,0,1,1.938,1.578,7.227,7.227,0,0,1,1.236,2.2A7.424,7.424,0,0,1,71.4,7.03a7.209,7.209,0,0,1-1.007,3.724A6.171,6.171,0,0,1,67.525,13.3a6.773,6.773,0,0,1,3.668,2.527,7.166,7.166,0,0,1,1.349,4.351,6.435,6.435,0,0,1-.627,2.85,6.635,6.635,0,0,1-1.71,2.2A7.842,7.842,0,0,1,67.7,26.638a9.269,9.269,0,0,1-3.058.494Zm3.42-2.965h9.386a4.007,4.007,0,0,0,1.748-.38,4.82,4.82,0,0,0,1.406-1.007,4.63,4.63,0,0,0,1.292-3.211,4.964,4.964,0,0,0-.323-1.767,5.055,5.055,0,0,0-.874-1.5,4.161,4.161,0,0,0-1.311-1.026A3.691,3.691,0,0,0,64.9,14.9H55.252Zm0-12.046H63.84a3.855,3.855,0,0,0,1.672-.361,4.152,4.152,0,0,0,1.31-.969,4.719,4.719,0,0,0,1.2-3.154,5.194,5.194,0,0,0-.3-1.787A4.724,4.724,0,0,0,66.9,4.408a3.585,3.585,0,0,0-1.255-.95,3.72,3.72,0,0,0-1.577-.342H55.252ZM34.428,27.132V17.214L24.205.152h3.762l8.17,14.06L44.384.152h3.724L37.848,17.29v9.842Z" transform="translate(0.5 0.5)" fill="#0f1231" stroke="rgba(0,0,0,0)" stroke-miterlimit="10" stroke-width="1"/>
</svg>